<svg xmlns="http://www.w3.org/2000/svg" width="1400" height="1000" viewBox="0 0 1400 1000">
  <defs>
    <radialGradient id="r" cx="50%" cy="45%" r="55%"><stop offset="0" stop-color="#00e5ff" stop-opacity=".22"/><stop offset=".52" stop-color="#00ff8f" stop-opacity=".07"/><stop offset="1" stop-color="#020406" stop-opacity="0"/></radialGradient>
    <linearGradient id="b" x1="0" y1="0" x2="1" y2="1"><stop stop-color="#070b10"/><stop offset="1" stop-color="#020406"/></linearGradient>
  </defs>
  <rect width="1400" height="1000" fill="url(#b)"/>
  <rect width="1400" height="1000" fill="url(#r)"/>
  <g fill="none" transform="translate(710 440)">
    <circle r="310" stroke="#00e5ff" stroke-opacity=".28" stroke-width="2"/>
    <circle r="230" stroke="#00ff8f" stroke-opacity=".36" stroke-width="2" stroke-dasharray="8 18"/>
    <circle r="145" stroke="#783cff" stroke-opacity=".35" stroke-width="2"/>
  </g>
  <g stroke="#ffffff" stroke-opacity=".04">
    <path d="M0 125H1400M0 250H1400M0 375H1400M0 500H1400M0 625H1400M0 750H1400M0 875H1400"/>
    <path d="M140 0V1000M280 0V1000M420 0V1000M560 0V1000M700 0V1000M840 0V1000M980 0V1000M1120 0V1000M1260 0V1000"/>
  </g>
</svg>
