<svg xmlns="http://www.w3.org/2000/svg" viewBox="0 0 1920 1080">
<defs>
  <radialGradient id="g1" cx="72%" cy="42%" r="48%"><stop offset="0" stop-color="#00e5ff" stop-opacity=".22"/><stop offset=".45" stop-color="#00ff8f" stop-opacity=".10"/><stop offset="1" stop-color="#050807" stop-opacity="0"/></radialGradient>
  <linearGradient id="g2" x1="0" y1="1" x2="1" y2="0"><stop stop-color="#050807"/><stop offset=".6" stop-color="#07100d"/><stop offset="1" stop-color="#0b0712"/></linearGradient>
  <filter id="blur"><feGaussianBlur stdDeviation="28"/></filter>
  <pattern id="grid" width="72" height="72" patternUnits="userSpaceOnUse"><path d="M72 0H0V72" fill="none" stroke="#fff" stroke-opacity=".045"/></pattern>
</defs>
<rect width="1920" height="1080" fill="url(#g2)"/><rect width="1920" height="1080" fill="url(#grid)"/><rect width="1920" height="1080" fill="url(#g1)"/>
<circle cx="1450" cy="470" r="310" fill="none" stroke="#00e5ff" stroke-opacity=".35" stroke-width="2"/><circle cx="1450" cy="470" r="240" fill="none" stroke="#00ff8f" stroke-opacity=".45" stroke-width="2" stroke-dasharray="13 15"/><circle cx="1450" cy="470" r="135" fill="#00e5ff" fill-opacity=".04" stroke="#7b3cff" stroke-opacity=".55" stroke-width="2"/>
<path d="M1450 160L1570 420L1755 290L1610 500L1870 535L1605 575L1750 780L1568 640L1450 895L1330 640L1145 780L1290 575L1025 535L1290 500L1145 290L1330 420Z" fill="#00e5ff" fill-opacity=".045" stroke="#00ff8f" stroke-opacity=".12"/>
<rect x="1080" y="210" width="740" height="560" rx="4" fill="none" stroke="#fff" stroke-opacity=".14"/>
<path d="M1080 270h740M1140 210v560M1760 210v560" stroke="#fff" stroke-opacity=".08"/>
<rect x="1210" y="850" width="560" height="2" fill="#00ff8f" opacity=".6"/><rect x="1210" y="870" width="390" height="2" fill="#00e5ff" opacity=".35"/>
<ellipse cx="1450" cy="470" rx="490" ry="220" fill="#00ff8f" fill-opacity=".06" filter="url(#blur)"/>
</svg>
