<svg xmlns="http://www.w3.org/2000/svg" width="800" height="180" viewBox="0 0 800 180">
  <path d="M0 94 C40 94 50 44 90 44 S140 142 180 142 230 72 270 72 320 120 360 120 410 20 450 20 500 155 540 155 590 66 630 66 680 105 720 105 760 82 800 82" fill="none" stroke="#00ff8f" stroke-width="3"/>
  <path d="M0 104 C40 104 50 54 90 54 S140 152 180 152 230 82 270 82 320 130 360 130 410 30 450 30 500 165 540 165 590 76 630 76 680 115 720 115 760 92 800 92" fill="none" stroke="#00e5ff" stroke-opacity=".3" stroke-width="1"/>
</svg>
